<svg xmlns="http://www.w3.org/2000/svg" xmlns:xlink="http://www.w3.org/1999/xlink" fill="none" version="1.1" width="34" height="36" viewBox="0 0 34 36"><g><g><rect x="0" y="0" width="34" height="36" rx="2" fill="#FAFAFA" fill-opacity="1"/></g><g><path d="M11.34974,20.904600000000002C11.35574,21.2267,11.455739999999999,21.8505,11.60574,22.3388C11.92956,23.389400000000002,12.47324,24.3548,13.19874,25.1673C13.97679,26.0449,14.9264,26.7444,15.9857,27.2201C17.1386,27.7415,18.3858,28.0072,19.6458,27.9998C20.9055,28.0024,22.1515,27.7325,23.3028,27.2078C24.3613,26.7276,25.31,26.0251,26.0878,25.1457C26.8121,24.3305,27.3552,23.3637,27.6798,22.3121C27.9918,21.293300000000002,28.0772,20.215600000000002,27.9298,19.1585C27.7894,18.1456,27.4432,17.17432,26.9138,16.30741C26.4233,15.50099,25.7961,14.79114,25.0618,14.21145L25.0638,14.21145L17.5657,8.305214L17.5457,8.289825C17.0537,7.9020265,16.2267,7.9040783,15.6857,8.291877C15.1387,8.683779,15.0767,9.33319,15.5627,9.74356L15.5617,9.74458L18.6878,12.3535L9.15773,12.36376L9.14473,12.36376C8.356729999999999,12.36479,7.59973,12.89519,7.449730000000001,13.56614C7.29573,14.248380000000001,7.82973,14.814689999999999,8.64973,14.81777L8.64973,14.81982L13.47974,14.809560000000001L4.859725,21.598100000000002L4.825724,21.6237C4.0127228,22.2619,3.750722,23.3247,4.262723,23.9967C4.782724,24.681,5.8877299999999995,24.682,6.70973,24.0008L11.41374,20.052Q11.34474,20.5855,11.35074,20.904600000000002L11.34974,20.904600000000002ZM23.4398,22.6907C22.4698,23.7043,21.1138,24.2788,19.6448,24.2809C18.174799999999998,24.285,16.817700000000002,23.7146,15.8477,22.703C15.3897,22.231299999999997,15.0363,21.6637,14.8117,21.039C14.3953,19.849899999999998,14.4981,18.534599999999998,15.0937,17.42875C15.3867,16.88843,15.7781,16.41092,16.2467,16.02221C17.1887,15.234300000000001,18.387700000000002,14.80854,19.6428,14.80649C20.8988,14.80443,22.0978,15.22711,23.0408,16.01194C23.5208,16.41308,23.9108,16.888080000000002,24.1928,17.41438C24.4847,17.95369,24.6625,18.5501,24.7148,19.1646C24.7678,19.7944,24.6862,20.4284,24.4758,21.0226C24.2511,21.6482,23.8982,22.217100000000002,23.4398,22.6907Z" fill="#DB8132" fill-opacity="1"/></g><g><path d="M16.50390816,19.36857C16.4599056,20.21187,16.789907,20.99465,17.369908,21.576349999999998C18.00948,22.20242,18.86196,22.54768,19.74591,22.53867C20.629260000000002,22.54758,21.48108,22.202289999999998,22.11992,21.576349999999998C22.69992,20.99465,23.02992,20.21188,22.98492,19.367539999999998C22.93992,18.54783,22.54892,17.82353,21.95692,17.310565C21.37692,16.807864,20.59592,16.500087738,19.74591,16.500087738C18.93849,16.49422073,18.15503,16.781283,17.53391,17.310565C16.94191,17.82353,16.5499077,18.54783,16.50390816,19.36857Z" fill="#325683" fill-opacity="1"/></g></g></svg>