<svg xmlns="http://www.w3.org/2000/svg" xmlns:xlink="http://www.w3.org/1999/xlink" fill="none" version="1.1" width="71.185302734375" height="16" viewBox="0 0 71.185302734375 16"><g style="mix-blend-mode:passthrough"><g style="mix-blend-mode:passthrough"><path d="M15.7434,7.15202C15.907,6.63134,15.9888,6.03998,15.9888,5.37797L15.9888,3.5258C15.9888,3.16876,15.9256,2.78567,15.7992,2.37657C15.6801,1.96745,15.4793,1.5881,15.1967,1.23849C14.9214,0.881449,14.5607,0.587633,14.1144,0.357043C13.6681,0.119014,13.1213,0,12.4742,0L1.46164,0Q1.14923,0,0.881449,0.111576C0.702927,0.18596,0.546723,0.290097,0.412832,0.423989C0.286377,0.55788,0.18596,0.714086,0.111576,0.892607C0.037192,1.07113,0,1.26081,0,1.46164L0,16L2.90097,16L2.90097,2.90097L12.4742,2.90097C12.5337,2.90097,12.5969,2.90469,12.6639,2.91214C12.7382,2.91956,12.8052,2.9456,12.8647,2.99024C12.9316,3.02744,12.9837,3.09066,13.0209,3.17992C13.0655,3.26173,13.0879,3.38448,13.0879,3.5481L13.0879,5.37797C13.0879,5.75732,13.0284,6.09577,12.9093,6.39331C12.7903,6.68339,12.6192,6.93258,12.3961,7.14086C12.1804,7.34913,11.92,7.51649,11.6151,7.64296C11.3175,7.76197,10.9865,7.83636,10.622,7.86611L4.06136,7.86611L4.06136,10.7671L6.14783,10.7671L12.1953,16L16.6806,16L10.622,10.7671C10.9791,10.7671,11.3584,10.7262,11.7601,10.6444C12.1692,10.5625,12.5709,10.4323,12.9651,10.2538C13.3668,10.0679,13.7499,9.83356,14.1144,9.5509C14.4788,9.26824,14.7987,8.92979,15.0739,8.53556Q15.4979,7.93305,15.7434,7.15202ZM22.7615,16L33.2274,16L33.2274,13.099L22.7615,13.099C22.3896,13.099,22.0995,12.9986,21.8912,12.7978C21.6904,12.5895,21.5899,12.2994,21.5899,11.9275L21.5899,4.09483C21.5899,3.70061,21.6904,3.40307,21.8912,3.20222C22.092,3.0014,22.3821,2.90097,22.7615,2.90097L33.2274,2.90097L33.2274,0L22.7615,0C22.2631,0,21.8168,0.0632264,21.4226,0.189679C21.0284,0.316131,20.6787,0.487216,20.3738,0.702927C20.0762,0.911202,19.8196,1.15295,19.6039,1.42817C19.3882,1.70339,19.2134,1.99349,19.0795,2.29846C18.9456,2.59599,18.8452,2.90097,18.7782,3.21339C18.7187,3.51835,18.689,3.80475,18.689,4.07253L18.689,11.9275C18.689,12.4258,18.7522,12.8759,18.8787,13.2775C19.0051,13.6718,19.1725,14.0214,19.3807,14.3263C19.5964,14.6239,19.8419,14.8805,20.1171,15.0962C20.3924,15.3045,20.6787,15.4756,20.9763,15.6095C21.2812,15.7434,21.5862,15.8438,21.8912,15.9107C22.2036,15.9702,22.4937,16,22.7615,16ZM51.6484,14.5383C51.6484,14.7466,51.6113,14.94,51.537,15.1185C51.4625,15.2971,51.3585,15.4533,51.2245,15.5872C51.0907,15.7136,50.9343,15.814,50.7558,15.8884C50.5773,15.9628,50.3878,16,50.1869,16L43.6485,16C43.0311,16,42.4062,15.933,41.774,15.7992C41.1418,15.6653,40.5282,15.4607,39.9331,15.1855C39.3454,14.9028,38.7913,14.5458,38.2705,14.1144C37.7499,13.6829,37.2924,13.1734,36.8983,12.5858C36.5115,11.9907,36.2063,11.3138,35.9833,10.5551C35.76,9.78893,35.6486,8.93724,35.6486,8L35.6486,0L38.5495,0L38.5495,8C38.5495,8.81822,38.6611,9.50998,38.8841,10.0753C39.1148,10.6406,39.4049,11.113,39.7546,11.4923C40.104,11.8717,40.4872,12.1692,40.9038,12.3849C41.3204,12.6006,41.7145,12.7606,42.0863,12.8647C42.4657,12.9688,42.7968,13.0358,43.0794,13.0655C43.3695,13.0879,43.5592,13.099,43.6485,13.099L48.7476,13.099L48.7476,0L51.6484,0L51.6484,14.5383ZM71.1853,0L67.2245,0L53.5453,16L57.4951,16L62.3376,10.3319L67.2022,16L71.1408,16L64.3013,8.0223L71.1853,0Z" fill-rule="evenodd" fill="#FFFFFF" fill-opacity="1"/></g><g style="mix-blend-mode:passthrough"><path d="M57.46532705566406,0.05206877365708351C57.46532705566406,0.05206877365708351,53.53785705566406,0.05206877365708351,53.53785705566406,0.05206877365708351C53.53785705566406,0.05206877365708351,59.131527055664066,6.716868773657083,59.131527055664066,6.716868773657083C59.131527055664066,6.716868773657083,61.15477705566406,4.4555987736570835,61.15477705566406,4.4555987736570835C61.15477705566406,4.4555987736570835,57.46532705566406,0.05206877365708351,57.46532705566406,0.05206877365708351C57.46532705566406,0.05206877365708351,57.46532705566406,0.05206877365708351,57.46532705566406,0.05206877365708351Z" fill="#00BCFF" fill-opacity="1"/></g></g></svg>