<svg xmlns="http://www.w3.org/2000/svg" xmlns:xlink="http://www.w3.org/1999/xlink" fill="none" version="1.1" width="34" height="36" viewBox="0 0 34 36"><g><g><rect x="0" y="0" width="34" height="36" rx="2" fill="#FAFAFA" fill-opacity="1"/></g><g><path d="M26,15.944790000000001L23.8117,8L15.64254,10.128779999999999L14.43235,12.20368L11.978819999999999,12.18585L6,18.0006L11.97965,23.8166L14.43194,23.7988L15.64378,25.8712L23.8117,28L26,20.0577L24.7567,18.0006L26,15.944790000000001ZM14.63004,12.537749999999999L20.8791,10.97557L17.292,17.01954L10.116710000000001,17.01954L14.63004,12.537749999999999ZM14.63004,23.4647L10.116710000000001,18.9834L17.292,18.9834L20.8791,25.0269L14.63004,23.4647ZM22.6289,24.045L19.0398,18.0006L22.6281,11.95582L24.3609,18.0006L22.6289,24.045Z" fill="#000000" fill-opacity="1"/></g></g></svg>