<svg xmlns="http://www.w3.org/2000/svg" xmlns:xlink="http://www.w3.org/1999/xlink" fill="none" version="1.1" width="23" height="20" viewBox="0 0 23 20"><g style="opacity:0.5;mix-blend-mode:passthrough"><path d="M1.90381,16.0962Q3.80761,18,6.5,18L6.5,16Q4.63604,16,3.31802,14.682Q2,13.364,2,11.5Q2,9.95813,2.9456,8.74025Q3.8912,7.52237,5.38499,7.14033L5.98873,6.98592L6.1161,6.37589Q6.51531,4.46389,8.03104,3.23195Q9.54677,2,11.5,2Q13.4532,2,14.969,3.23195Q16.4847,4.46389,16.8839,6.37589L17.0113,6.98592L17.615,7.14033Q19.1088,7.52237,20.0544,8.74025Q21,9.95813,21,11.5Q21,13.364,19.682,14.682Q18.364,16,16.5,16L16.5,18Q19.1924,18,21.0962,16.0962Q23,14.1924,23,11.5Q23,9.27285,21.6341,7.51369Q20.4586,5.99961,18.6964,5.37988Q18.0597,3.16672,16.2304,1.67993Q14.1635,0,11.5,0Q8.8365,0,6.7696,1.67993Q4.94032,3.16671,4.30361,5.37988Q2.54145,5.99961,1.36586,7.51369Q0,9.27285,0,11.5Q0,14.1924,1.90381,16.0962ZM12.5,10.9142L15.2929,13.7071L16.7071,12.2929L11.5,7.08579L6.29289,12.2929L7.70711,13.7071L10.5,10.9142L10.5,20L12.5,20L12.5,10.9142Z" fill-rule="evenodd" fill="#FFFFFF" fill-opacity="1"/></g></svg>