<svg width="24" height="24" viewBox="0 0 24 24" fill="none" xmlns="http://www.w3.org/2000/svg">
<path opacity="0.2" fill-rule="evenodd" clip-rule="evenodd" d="M14.4144 7.34313C16.3671 9.29575 16.3671 12.4616 14.4144 14.4142C12.4618 16.3668 9.29599 16.3668 7.34337 14.4142C5.39075 12.4616 5.39075 9.29575 7.34337 7.34313C9.29599 5.39051 12.4618 5.39051 14.4144 7.34313ZM15.8287 5.92891C18.5623 8.66258 18.5623 13.0947 15.8287 15.8284C13.095 18.5621 8.66283 18.5621 5.92916 15.8284C3.19549 13.0947 3.19549 8.66258 5.92916 5.92891C8.66283 3.19524 13.095 3.19524 15.8287 5.92891ZM17.95 16.5356L15.8287 17.2427L19.3642 20.7782L20.0713 18.6569L17.95 16.5356Z" fill="black"/>
</svg>
