<svg xmlns="http://www.w3.org/2000/svg" xmlns:xlink="http://www.w3.org/1999/xlink" fill="none" version="1.1" width="88" height="108" viewBox="0 0 88 108"><defs><linearGradient x1="0.5" y1="-3.0616171314629196e-17" x2="0.5" y2="1" id="master_svg0_0_748"><stop offset="0%" stop-color="#B5BBC5" stop-opacity="1"/><stop offset="100%" stop-color="#9BA2AE" stop-opacity="1"/></linearGradient></defs><g style="mix-blend-mode:passthrough"><path d="M0,6C0,2.68629,2.68629,0,6,0C6,0,50,0,50,0C50,0,88,38,88,38C88,38,88,102,88,102C88,105.314,85.3137,108,82,108C82,108,6,108,6,108C2.68629,108,0,105.314,0,102C0,102,0,6,0,6C0,6,0,6,0,6Z" fill="url(#master_svg0_0_748)" fill-opacity="1"/><path d="M6,0C2.68629,0,0,2.68629,0,6L0,102C0,105.314,2.68629,108,6,108L82,108C85.3137,108,88,105.314,88,102L88,38L50,0L6,0ZM49.5858,1L6,1Q3.92893,1,2.46447,2.46447Q1,3.92893,1,6L1,102Q1,104.071,2.46445,105.536Q3.92887,107,6,107L82,107Q84.0711,107,85.5355,105.536Q87,104.071,87,102L87,38.4142L49.5858,1Z" fill-rule="evenodd" fill="#000000" fill-opacity="0.30000001192092896" style="mix-blend-mode:overlay"/></g></svg>