<svg xmlns="http://www.w3.org/2000/svg" xmlns:xlink="http://www.w3.org/1999/xlink" fill="none" version="1.1" width="91" height="111" viewBox="0 0 91 111"><defs><linearGradient x1="0.5" y1="-3.0616171314629196e-17" x2="0.5" y2="1" id="master_svg0_0_748"><stop offset="0%" stop-color="#B5BBC5" stop-opacity="1"/><stop offset="100%" stop-color="#9BA2AE" stop-opacity="1"/></linearGradient><filter id="master_svg1_0_757" filterUnits="objectBoundingBox" color-interpolation-filters="sRGB" x="-5" y="-3" width="46" height="46"><feFlood flood-opacity="0" result="BackgroundImageFix"/><feColorMatrix in="SourceAlpha" type="matrix" values="0 0 0 0 0 0 0 0 0 0 0 0 0 0 0 0 0 0 127 0"/><feOffset dy="1" dx="-1"/><feGaussianBlur stdDeviation="1"/><feColorMatrix type="matrix" values="0 0 0 0 0 0 0 0 0 0 0 0 0 0 0 0 0 0 0.10000000149011612 0"/><feBlend mode="normal" in2="BackgroundImageFix" result="effect1_dropShadow"/><feBlend mode="normal" in="SourceGraphic" in2="effect1_dropShadow" result="shape"/></filter><linearGradient x1="0.5" y1="0.5" x2="8.94946872165292e-9" y2="0.986842155456543" id="master_svg2_0_754"><stop offset="0%" stop-color="#D9DFE8" stop-opacity="1"/><stop offset="100%" stop-color="#C4CAD4" stop-opacity="1"/></linearGradient></defs><g style="mix-blend-mode:passthrough"><g style="mix-blend-mode:passthrough"><path d="M0,9C0,5.68629,2.68629,3,6,3C6,3,50,3,50,3C50,3,88,41,88,41C88,41,88,105,88,105C88,108.314,85.3137,111,82,111C82,111,6,111,6,111C2.68629,111,0,108.314,0,105C0,105,0,9,0,9C0,9,0,9,0,9Z" fill="url(#master_svg0_0_748)" fill-opacity="1"/><path d="M6,3C2.68629,3,0,5.68629,0,9L0,105C0,108.314,2.68629,111,6,111L82,111C85.3137,111,88,108.314,88,105L88,41L50,3L6,3ZM49.5858,4L6,4Q3.92893,4,2.46447,5.46447Q1,6.928929999999999,1,9L1,105Q1,107.071,2.46445,108.536Q3.92887,110,6,110L82,110Q84.0711,110,85.5355,108.536Q87,107.071,87,105L87,41.4142L49.5858,4Z" fill-rule="evenodd" fill="#000000" fill-opacity="0.30000001192092896" style="mix-blend-mode:overlay"/></g><g style="mix-blend-mode:passthrough" filter="url(#master_svg1_0_757)"><path d="M50,35C50,35,50,3,50,3C50,3,88,41,88,41C88,41,56,41,56,41C52.68629,41,50,38.3137,50,35C50,35,50,35,50,35Z" fill="url(#master_svg2_0_754)" fill-opacity="1"/><path d="M52.46447,38.5355Q51,37.0711,51,35L51,5.414210000000001L85.5858,40L56,40Q53.92893,40,52.46447,38.5355ZM87,40L88,41L56,41C52.68629,41,50,38.3137,50,35L50,3L87,40Z" fill-rule="evenodd" fill="#000000" fill-opacity="0.30000001192092896" style="mix-blend-mode:overlay"/></g></g></svg>